:FULLY-SPECIFIED
:FORCE-ALL-JOINTS-BE-3DOF
:DEGREES
951
root 1.09348 15.2733 32.7448 6.8644 -3.08273 364.429
lfemur 7.10116 0.943824 4.66152
ltibia -5.33508e-14 0 0
lfoot -28.5522 -13.8024 0
ltoes -32.2161 0 0
rfemur -31.9354 -16.4743 -6.68297
rtibia 49.5867 0 0
rfoot -21.3534 4.66397 0
rtoes -42.199 0 0
lowerback -2.31277 -0.736002 1.1798
upperback -1.24169 -1.00222 -6.71731
thorax -0.125509 -0.538358 -7.6974
lowerneck -6.31049 0.98434 5.22006
upperneck 0.586576 0.836237 3.2427
head 1.24787 0.497548 0.15757
lclavicle -1.66861e-14 -3.99101e-14 0
lhumerus -59.1936 -43.6205 112.524
lradius 55.4567 0 0
lwrist 25.6896 0 0
lhand 39.4231 24.0717 0
lfingers 7.12502 0 0
lthumb 61.9105 35.6393 0
rclavicle -1.66861e-14 -3.99101e-14 0
rhumerus 2.84667 -28.7092 1.60575
rradius 29.0417 0 0
rwrist -13.6597 0 0
rhand -35.2396 -50.0412 0
rfingers 7.12502 0 0
rthumb -8.37586 -799.85 0
952
root 1.07916 15.2623 32.7356 6.80588 -3.33102 364.344
lfemur 7.31068 1.14695 4.78224
ltibia -4.53229e-14 0 0
lfoot -28.684 -13.4763 0
ltoes -32.4794 0 0
rfemur -32.164 -16.3973 -6.49609
rtibia 49.7995 0 0
rfoot -21.5476 4.71355 0
rtoes -42.1275 0 0
lowerback -2.30147 -0.806819 1.19176
upperback -1.1871 -1.0955 -6.61765
thorax -0.0865042 -0.583195 -7.59865
lowerneck -6.21872 1.11463 5.33841
upperneck 0.547601 1.01054 3.17799
head 1.22242 0.58159 0.122397
lclavicle -1.54058e-14 -2.38541e-14 0
lhumerus -59.2223 -43.6746 112.706
lradius 55.4468 0 0
lwrist 25.9282 0 0
lhand 39.0532 24.1147 0
lfingers 7.12502 0 0
lthumb 61.6003 36.0556 0
rclavicle -1.54058e-14 -2.38541e-14 0
rhumerus 3.28925 -28.0174 1.71049
rradius 29.0651 0 0
rwrist -13.2671 0 0
rhand -34.7296 -50.0284 0
rfingers 7.12502 0 0
rthumb -7.88361 -799.856 0
953
root 1.06485 15.2513 32.7264 6.74736 -3.5793 364.259
lfemur 7.52019 1.35008 4.90295
ltibia -3.7295e-14 0 0
lfoot -28.8158 -13.1501 0
ltoes -32.7427 0 0
rfemur -32.3926 -16.3203 -6.30921
rtibia 50.0122 0 0
rfoot -21.7419 4.76313 0
rtoes -42.056 0 0
lowerback -2.29018 -0.877636 1.20372
upperback -1.13251 -1.18877 -6.51798
thorax -0.0474996 -0.628032 -7.4999
lowerneck -6.12694 1.24491 5.45676
upperneck 0.508625 1.18483 3.11329
head 1.19696 0.665631 0.0872243
lclavicle -1.41255e-14 -7.79824e-15 0
lhumerus -59.2511 -43.7287 112.887
lradius 55.4369 0 0
lwrist 26.1669 0 0
lhand 38.6832 24.1576 0
lfingers 7.12502 0 0
lthumb 61.2901 36.4718 0
rclavicle -1.41255e-14 -7.79824e-15 0
rhumerus 3.73183 -27.3255 1.81523
rradius 29.0885 0 0
rwrist -12.8744 0 0
rhand -34.2196 -50.0155 0
rfingers 7.12502 0 0
rthumb -7.39137 -799.862 0
954
root 1.05099 15.2406 32.7176 6.6907 -3.81966 364.177
lfemur 7.72302 1.54673 5.01981
ltibia -2.95232e-14 0 0
lfoot -28.9434 -12.8344 0
ltoes -32.9975 0 0
rfemur -32.6139 -16.2458 -6.12829
rtibia 50.2182 0 0
rfoot -21.9299 4.81112 0
rtoes -41.9868 0 0
lowerback -2.27924 -0.946193 1.2153
upperback -1.07966 -1.27907 -6.42149
thorax -0.0097397 -0.671439 -7.40431
lowerneck -6.0381 1.37104 5.57133
upperneck 0.470893 1.35357 3.05064
head 1.17231 0.746989 0.0531739
lclavicle -1.2886e-14 7.74525e-15 0
lhumerus -59.2788 -43.7811 113.064
lradius 55.4273 0 0
lwrist 26.398 0 0
lhand 38.325 24.1991 0
lfingers 7.12502 0 0
lthumb 60.9899 36.8748 0
rclavicle -1.2886e-14 7.74525e-15 0
rhumerus 4.16028 -26.6557 1.91663
rradius 29.1111 0 0
rwrist -12.4943 0 0
rhand -33.7259 -50.003 0
rfingers 7.12502 0 0
rthumb -6.91484 -799.867 0
955
root 1.03805 15.2307 32.7093 6.63778 -4.04417 364.1
lfemur 7.91248 1.73041 5.12896
ltibia -2.22639e-14 0 0
lfoot -29.0626 -12.5395 0
ltoes -33.2356 0 0
rfemur -32.8206 -16.1762 -5.9593
rtibia 50.4106 0 0
rfoot -22.1055 4.85595 0
rtoes -41.9221 0 0
lowerback -2.26902 -1.01023 1.22612
upperback -1.0303 -1.36341 -6.33137
thorax 0.0255305 -0.711983 -7.31502
lowerneck -5.95512 1.48885 5.67834
upperneck 0.435649 1.51118 2.99213
head 1.14929 0.822984 0.0213686
lclavicle -1.17283e-14 2.22639e-14 0
lhumerus -59.3048 -43.8301 113.228
lradius 55.4183 0 0
lwrist 26.6138 0 0
lhand 37.9904 24.2379 0
lfingers 7.12502 0 0
lthumb 60.7094 37.2512 0
rclavicle -1.17283e-14 2.22639e-14 0
rhumerus 4.56049 -26.0301 2.01134
rradius 29.1322 0 0
rwrist -12.1393 0 0
rhand -33.2647 -49.9913 0
rfingers 7.12502 0 0
rthumb -6.46972 -799.872 0
956
root 1.03446 15.2211 32.7008 6.5626 -4.2597 364.127
lfemur 8.07152 1.88795 5.1319
ltibia -1.77581e-14 0 0
lfoot -29.1399 -12.5326 0
ltoes -33.2305 0 0
rfemur -32.9901 -16.197 -5.95167
rtibia 50.5656 0 0
rfoot -22.2441 5.06841 0
rtoes -41.8592 0 0
lowerback -2.16488 -0.970901 1.13555
upperback -1.04137 -1.31248 -6.31991
thorax -0.0354788 -0.687248 -7.24726
lowerneck -5.95823 1.46424 5.69591
upperneck 0.439146 1.47441 3.08823
head 1.14982 0.806407 0.0473122
lclavicle -1.01325e-14 2.0762e-14 0
lhumerus -59.269 -43.9368 113.386
lradius 55.364 0 0
lwrist 26.1751 0 0
lhand 38.1688 24.0282 0
lfingers 7.12502 0 0
lthumb 60.8598 36.8671 0
rclavicle -1.01325e-14 2.0762e-14 0
rhumerus 4.67078 -26.0405 1.87259
rradius 29.0385 0 0
rwrist -12.2367 0 0
rhand -33.1344 -49.6705 0
rfingers 7.12502 0 0
rthumb -6.34397 -799.555 0
957
root 1.03061 15.2107 32.6917 6.4821 -4.49044 364.155
lfemur 8.24178 2.05662 5.13505
ltibia -1.29343e-14 0 0
lfoot -29.2227 -12.5252 0
ltoes -33.225 0 0
rfemur -33.1715 -16.2192 -5.9435
rtibia 50.7316 0 0
rfoot -22.3925 5.29586 0
rtoes -41.7918 0 0
lowerback -2.05338 -0.928795 1.03859
upperback -1.05323 -1.25796 -6.30765
thorax -0.100795 -0.660766 -7.17473
lowerneck -5.96156 1.4379 5.71471
upperneck 0.442891 1.43505 3.19111
head 1.15039 0.78866 0.0750872
lclavicle -8.42406e-15 1.9154e-14 0
lhumerus -59.2306 -44.051 113.555
lradius 55.3059 0 0
lwrist 25.7054 0 0
lhand 38.3597 23.8038 0
lfingers 7.12502 0 0
lthumb 61.0208 36.4559 0
rclavicle -8.42406e-15 1.9154e-14 0
rhumerus 4.78885 -26.0516 1.72405
rradius 28.9383 0 0
rwrist -12.3409 0 0
rhand -32.995 -49.327 0
rfingers 7.12502 0 0
rthumb -6.20935 -799.215 0
958
root 1.02664 15.2001 32.6823 6.39896 -4.72879 364.184
lfemur 8.41766 2.23084 5.1383
ltibia -7.95139e-15 0 0
lfoot -29.3082 -12.5175 0
ltoes -33.2194 0 0
rfemur -33.359 -16.2422 -5.93506
rtibia 50.9031 0 0
rfoot -22.5458 5.53081 0
rtoes -41.7222 0 0
lowerback -1.93821 -0.885301 0.938426
upperback -1.06547 -1.20165 -6.29498
thorax -0.168264 -0.633412 -7.0998
lowerneck -5.965 1.41069 5.73414
upperneck 0.446759 1.39439 3.29739
head 1.15097 0.770328 0.103778
lclavicle -6.65929e-15 1.7493e-14 0
lhumerus -59.191 -44.169 113.729
lradius 55.2458 0 0
lwrist 25.2202 0 0
lhand 38.557 23.5719 0
lfingers 7.12502 0 0
lthumb 61.1871 36.0312 0
rclavicle -6.65929e-15 1.7493e-14 0
rhumerus 4.91082 -26.0632 1.57061
rradius 28.8347 0 0
rwrist -12.4486 0 0
rhand -32.8509 -48.9721 0
rfingers 7.12502 0 0
rthumb -6.07029 -798.864 0
959
root 1.02267 15.1894 32.6728 6.31582 -4.96714 364.214
lfemur 8.59354 2.40506 5.14156
ltibia -2.96852e-15 0 0
lfoot -29.3937 -12.5099 0
ltoes -33.2138 0 0
rfemur -33.5464 -16.2652 -5.92662
rtibia 51.0746 0 0
rfoot -22.6992 5.76576 0
rtoes -41.6526 0 0
lowerback -1.82305 -0.841808 0.838266
upperback -1.07771 -1.14533 -6.28231
thorax -0.235733 -0.606057 -7.02486
lowerneck -5.96843 1.38348 5.75357
upperneck 0.450626 1.35374 3.40367
head 1.15156 0.751996 0.132468
lclavicle -4.89452e-15 1.58321e-14 0
lhumerus -59.1513 -44.2869 113.903
lradius 55.1857 0 0
lwrist 24.735 0 0
lhand 38.7543 23.34 0
lfingers 7.12502 0 0
lthumb 61.3534 35.6064 0
rclavicle -4.89452e-15 1.58321e-14 0
rhumerus 5.03279 -26.0747 1.41716
rradius 28.7311 0 0
rwrist -12.5563 0 0
rhand -32.7069 -48.6173 0
rfingers 7.12502 0 0
rthumb -5.93122 -798.514 0
960
root 1.01882 15.179 32.6637 6.23532 -5.19788 364.242
lfemur 8.7638 2.57373 5.14471
ltibia 1.85532e-15 0 0
lfoot -29.4765 -12.5025 0
ltoes -33.2083 0 0
rfemur -33.7278 -16.2874 -5.91845
rtibia 51.2406 0 0
rfoot -22.8476 5.99321 0
rtoes -41.5852 0 0
lowerback -1.71155 -0.799702 0.741302
upperback -1.08957 -1.09081 -6.27005
thorax -0.301049 -0.579575 -6.95233
lowerneck -5.97176 1.35714 5.77237
upperneck 0.454371 1.31438 3.50655
head 1.15213 0.734249 0.160243
lclavicle -3.18608e-15 1.42241e-14 0
lhumerus -59.1129 -44.4011 114.072
lradius 55.1276 0 0
lwrist 24.2653 0 0
lhand 38.9452 23.1156 0
lfingers 7.12502 0 0
lthumb 61.5144 35.1952 0
rclavicle -3.18608e-15 1.42241e-14 0
rhumerus 5.15086 -26.0858 1.26862
rradius 28.6309 0 0
rwrist -12.6605 0 0
rhand -32.5675 -48.2738 0
rfingers 7.12502 0 0
rthumb -5.7966 -798.174 0
961
root 1.01523 15.1694 32.6552 6.16014 -5.41341 364.269
lfemur 8.92284 2.73127 5.14765
ltibia 6.36111e-15 0 0
lfoot -29.5538 -12.4956 0
ltoes -33.2032 0 0
rfemur -33.8973 -16.3082 -5.91082
rtibia 51.3956 0 0
rfoot -22.9862 6.20567 0
rtoes -41.5223 0 0
lowerback -1.60741 -0.760373 0.650732
upperback -1.10064 -1.03988 -6.25859
thorax -0.362058 -0.55484 -6.88457
lowerneck -5.97487 1.33253 5.78994
upperneck 0.457868 1.27761 3.60265
head 1.15266 0.717672 0.186187
lclavicle -1.59028e-15 1.27222e-14 0
lhumerus -59.0771 -44.5078 114.23
lradius 55.0733 0 0
lwrist 23.8266 0 0
lhand 39.1236 22.9059 0
lfingers 7.12502 0 0
lthumb 61.6648 34.8111 0
rclavicle -1.59028e-15 1.27222e-14 0
rhumerus 5.26115 -26.0962 1.12987
rradius 28.5372 0 0
rwrist -12.7579 0 0
rhand -32.4372 -47.953 0
rfingers 7.12502 0 0
rthumb -5.67085 -797.857 0
962
root 1.01965 15.1633 32.6489 6.16224 -5.45057 364.266
lfemur 8.91958 2.76534 5.15999
ltibia 1.03662e-14 0 0
lfoot -29.6272 -12.4747 0
ltoes -33.2121 0 0
rfemur -33.9897 -16.3465 -5.90987
rtibia 51.4673 0 0
rfoot -23.0071 6.30249 0
rtoes -41.4455 0 0
lowerback -1.61287 -0.723272 0.66601
upperback -1.09959 -0.989988 -6.24181
thorax -0.351623 -0.529442 -6.875
lowerneck -6.02029 1.32128 5.78475
upperneck 0.40264 1.26274 3.57283
head 1.14291 0.708397 0.177426
lclavicle 2.83729e-15 1.77286e-14 0
lhumerus -58.9672 -44.3965 114.228
lradius 55.025 0 0
lwrist 24.0094 0 0
lhand 38.8862 23.2347 0
lfingers 7.12502 0 0
lthumb 61.4642 35.3695 0
rclavicle 2.83729e-15 1.77286e-14 0
rhumerus 5.13745 -26.1158 1.12528
rradius 28.5283 0 0
rwrist -12.7571 0 0
rhand -32.3726 -47.7859 0
rfingers 7.12502 0 0
rthumb -5.6085 -797.692 0
963
root 1.02439 15.1569 32.6422 6.16449 -5.49034 364.264
lfemur 8.91608 2.80182 5.17321
ltibia 1.46541e-14 0 0
lfoot -29.7057 -12.4523 0
ltoes -33.2216 0 0
rfemur -34.0885 -16.3876 -5.90886
rtibia 51.544 0 0
rfoot -23.0295 6.40615 0
rtoes -41.3633 0 0
lowerback -1.61872 -0.683552 0.682367
upperback -1.09846 -0.936574 -6.22385
thorax -0.340451 -0.502251 -6.86475
lowerneck -6.06891 1.30923 5.77918
upperneck 0.343514 1.24682 3.5409
head 1.13246 0.698468 0.168048
lclavicle 7.57739e-15 2.30885e-14 0
lhumerus -58.8495 -44.2774 114.225
lradius 54.9733 0 0
lwrist 24.2051 0 0
lhand 38.632 23.5868 0
lfingers 7.12502 0 0
lthumb 61.2495 35.9673 0
rclavicle 7.57739e-15 2.30885e-14 0
rhumerus 5.00501 -26.1368 1.12036
rradius 28.5188 0 0
rwrist -12.7563 0 0
rhand -32.3035 -47.6069 0
rfingers 7.12502 0 0
rthumb -5.54175 -797.514 0
964
root 1.02928 15.1502 32.6352 6.16681 -5.53143 364.261
lfemur 8.91247 2.8395 5.18685
ltibia 1.90833e-14 0 0
lfoot -29.7869 -12.4292 0
ltoes -33.2315 0 0
rfemur -34.1906 -16.43 -5.90781
rtibia 51.6232 0 0
rfoot -23.0525 6.51323 0
rtoes -41.2784 0 0
lowerback -1.62477 -0.642522 0.699264
upperback -1.09729 -0.881399 -6.2053
thorax -0.328911 -0.474164 -6.85417
lowerneck -6.11913 1.29679 5.77344
upperneck 0.282438 1.23037 3.50792
head 1.12167 0.688211 0.15836
lclavicle 1.24738e-14 2.8625e-14 0
lhumerus -58.7279 -44.1543 114.223
lradius 54.92 0 0
lwrist 24.4073 0 0
lhand 38.3694 23.9505 0
lfingers 7.12502 0 0
lthumb 61.0277 36.5849 0
rclavicle 1.24738e-14 2.8625e-14 0
rhumerus 4.86821 -26.1584 1.11528
rradius 28.5089 0 0
rwrist -12.7554 0 0
rhand -32.2321 -47.4221 0
rfingers 7.12502 0 0
rthumb -5.4728 -797.332 0
